# xmcd
#
# Track frame offsets:
# 150
# 17844
# 40690
# 59408
# 95528
# 115542
# 132133
# 150553
# 178094
# 201739
#
# Disc length: 3055 seconds
#
#
# Revision: 0
# Processed by: cddbd v1.5.1PL0 Copyright (c) Steve Scherf et al.
# Submitted via: FreeRIP 2.60 
#
DISCID=830bed0a
DTITLE=TJ Wheeler and Hatrack Gallagher - Next Right Thing
DYEAR=2000
DGENRE=Country
TTITLE0=Next Right Thing
TTITLE1=Sassified
TTITLE2=Blues in There
TTITLE3=Down in Mississipi
TTITLE4=Soulforce
TTITLE5=When the Light Go Out
TTITLE6=Evening
TTITLE7=Greasy Greens
TTITLE8=The Spy Boy
TTITLE9=Neutral Ground
EXTD=
EXTT0=
EXTT1=
EXTT2=
EXTT3=
EXTT4=
EXTT5=
EXTT6=
EXTT7=
EXTT8=
EXTT9=
PLAYORDER=
